# xmcd
#
# Track frame offsets:
#	150
#	9300
#	21580
#	34310
#	43570
#	55157
#	67265
#	76342
#	86115
#	96610
#	108367
#	119057
#	128532
#	140360
#	151322
#	163487
#
# Disc length: 2319 seconds
#
# Revision: 1
# Processed by: cddbd v1.5.1PL0 Copyright (c) Steve Scherf et al.
# Submitted via: CDex 1.50Beta5
#
DISCID=e3090d10
DTITLE=サウンドトラック - AMERICAN DREAM
DYEAR=1900
DGENRE=Soundtrack
TTITLE0=ジミー・ジョーンズ/グッド・タイミング
TTITLE1=ボビー・ヴィントン/ミスター・ロンリー
TTITLE2=ジョニー・ホートン/アラスカ魂
TTITLE3=フランキー・レイン/ローハイド
TTITLE4=ジョニー・ティロットソン/ポエトリー・イン・モーション
TTITLE5=トーケンズ/ライオンは寝ている
TTITLE6=ジョニー・トマーズ/ワン・ボーイ
TTITLE7=スティーブ・ローレンス/悲しき足音
TTITLE8=デル・シャノン/悲しき街角
TTITLE9=ジョニー・ブレストン/悲しきインディアン
TTITLE10=ブライアン・ハイランド/ビキニスタイルのお嬢さん
TTITLE11=エディ・ホッジス/恋の売り込み
TTITLE12=フォア・シーズンズ/シェリー
TTITLE13=リック・ネルソン/ヤング・ワールド
TTITLE14=ボビー・ヴィントン/涙の紅バラ
TTITLE15=リトル・エヴァ/ロコモーション
EXTD=
EXTT0=
EXTT1=
EXTT2=
EXTT3=
EXTT4=
EXTT5=
EXTT6=
EXTT7=
EXTT8=
EXTT9=
EXTT10=
EXTT11=
EXTT12=
EXTT13=
EXTT14=
EXTT15=
PLAYORDER=
